<?xml version="1.0" encoding="utf-8"?>
<!-- Generator: Adobe Illustrator 20.1.0, SVG Export Plug-In . SVG Version: 6.00 Build 0)  -->
<svg version="1.1" id="Layer_1" xmlns="http://www.w3.org/2000/svg" xmlns:xlink="http://www.w3.org/1999/xlink" x="0px" y="0px"
	 viewBox="0 0 200 200" style="enable-background:new 0 0 200 200;" xml:space="preserve">
<style type="text/css">
	.st0{fill:#FAA61A;}
</style>
<g>
	<path class="st0" d="M163.4,122.6h-23.1l9.8-14.2c18.6-24.8,15.9-65.5-5.8-87.2C132.7,9.5,117.1,3.1,100.6,3.1
		C84,3.1,68.5,9.5,56.8,21.2C35.1,42.9,32.4,83.6,51,108.3l9.9,14.3H36.6L1.2,196.9h197.6L163.4,122.6z M101.1,41.8
		c12.5,0,22.6,10.2,22.6,22.6S113.5,87,101.1,87c-12.5,0-22.6-10.2-22.6-22.6S88.7,41.8,101.1,41.8L101.1,41.8z M40.7,129.1h24.7
		l35.3,50.9l35.2-50.9h23.5l29.2,61.4H11.4L40.7,129.1z"/>
</g>
</svg>
