<?xml version="1.0" encoding="utf-8"?>
<!-- Generator: Adobe Illustrator 20.1.0, SVG Export Plug-In . SVG Version: 6.00 Build 0)  -->
<svg version="1.1" id="Layer_1" xmlns="http://www.w3.org/2000/svg" xmlns:xlink="http://www.w3.org/1999/xlink" x="0px" y="0px"
	 viewBox="0 0 200 200" style="enable-background:new 0 0 200 200;" xml:space="preserve">
<style type="text/css">
	.st0{fill:#FAA61A;}
</style>
<g>
	<path class="st0" d="M146.9,85.9c-0.8,0.2-1.4,0.8-2.3,1c-1,0.4-1.9,0.6-2.9,0.8c-1.2,0.2-2.1-0.6-2.5-1.7c-0.2-1-0.4-1.9-0.2-2.9
		c0.2-1.9,0.6-3.7,1-5.6c1-5.6,2.1-11.3,3.1-16.9c0.2-1.4,0.6-3.1,0.4-4.6c0-1.9-1.2-2.7-3.1-2.7h-14.8c-0.6,0-1.2,0-1.9,0.2
		c-1,0.2-1.7,0.8-1.9,1.7c0,0.6,0.4,1.4,1.4,1.9c0.8,0.2,1.7,0.4,2.7,0.4c2.1,0.2,2.7,1,2.7,3.1v1c-0.8,4.9-1.7,9.9-2.7,14.8
		c-0.4,2.9-0.8,5.8-1.2,8.4c-0.6,4.1,3.5,8,6.6,8.4c1.9,0.2,3.9,0.4,5.8,0.4c4.1,0,7.6-1.9,10.5-4.8c0.4-0.4,1-1.2,1-1.9
		C148.9,86.2,148.1,85.4,146.9,85.9L146.9,85.9z"/>
	<path class="st0" d="M178.6,21c-23.7-23.9-62.3-23.9-86,0c-22.9,22.9-23.7,59.4-2.5,83.3l0.4,0.4c-2.3,4.9-6.4,11.1-12.6,14.2
		c-2.1,1-1.7,4.1,0.6,4.6c7,1,16.9,0,26-7l0.2,0.2c23.3,13.6,53.8,10.5,73.8-9.5C202.4,83.3,202.4,44.7,178.6,21L178.6,21z
		 M135.7,110.7c-25.8,0-46.6-20.8-46.6-46.6s20.8-46.6,46.6-46.6s46.6,20.8,46.6,46.6C182.4,89.9,161.5,110.7,135.7,110.7
		L135.7,110.7z"/>
	<path class="st0" d="M117.4,145.3c-4.8-5-10.9-5-15.9,0l-11.1,11.1c-1,1-1.9,1.2-3.1,0.6c-2.3-1.4-4.9-2.5-7.2-3.9
		c-10.7-6.8-19.8-15.5-27.8-25.3c-3.9-4.9-7.4-10.1-9.9-16.1c-0.4-1.2-0.4-1.9,0.6-2.9c3.9-3.5,7.4-7.2,11.1-10.9
		c5.1-5.1,5.1-11.1,0-16.3l-8.9-8.9c-3.1-3.1-6-6.2-9.1-9.1c-4.8-4.8-10.9-4.8-15.9,0L9.1,74.9c-3.5,3.5-5.3,7.6-5.8,12.4
		c-0.6,7.6,1.2,15,3.9,22.3c5.6,15,14,28,24.1,40.2c13.8,16.5,30.3,29.5,49.5,38.8c8.7,4.1,17.5,7.4,27,8c6.8,0.4,12.6-1.4,17.3-6.6
		c3.1-3.7,6.8-6.8,10.1-10.3c4.9-5.1,4.9-11.3,0-16.3L117.4,145.3z"/>
	<path class="st0" d="M137.2,49.9c4.3,0,7.8-3.5,7.8-7.8s-3.5-8-7.8-8s-7.8,3.5-8,7.8C129.3,46.4,132.9,49.9,137.2,49.9L137.2,49.9z
		"/>
</g>
</svg>
